<?xml version="1.0" encoding="UTF-8"?>
<svg xmlns="http://www.w3.org/2000/svg" xmlns:xlink="http://www.w3.org/1999/xlink" width="35px" height="35px" viewBox="0 0 35 35" version="1.1">
<g id="surface1">
<path style=" stroke:none;fill-rule:nonzero;fill:rgb(9.803922%,65.490196%,80.784314%);fill-opacity:1;" d="M 35 17.5 C 35 27.164062 27.164062 35 17.5 35 C 7.835938 35 0 27.164062 0 17.5 C 0 7.835938 7.835938 0 17.5 0 C 27.164062 0 35 7.835938 35 17.5 Z M 35 17.5 "/>
<path style=" stroke:none;fill-rule:nonzero;fill:rgb(100%,100%,100%);fill-opacity:1;" d="M 23.515625 7.765625 L 21.050781 7.765625 C 20.792969 7.421875 20.394531 7.21875 19.960938 7.21875 L 19.046875 7.21875 C 18.816406 6.5625 18.195312 6.125 17.5 6.125 C 16.804688 6.125 16.183594 6.5625 15.957031 7.21875 L 15.039062 7.21875 C 14.605469 7.21875 14.207031 7.421875 13.949219 7.765625 L 11.484375 7.765625 C 9.976562 7.769531 8.753906 8.992188 8.75 10.5 L 8.75 25.265625 C 8.753906 26.773438 9.976562 27.996094 11.484375 28 L 23.515625 28 C 25.023438 27.996094 26.246094 26.773438 26.25 25.265625 L 26.25 10.5 C 26.246094 8.992188 25.023438 7.769531 23.515625 7.765625 Z M 17.5 7.21875 C 17.800781 7.21875 18.046875 7.464844 18.046875 7.765625 C 18.046875 8.066406 17.800781 8.3125 17.5 8.3125 C 17.199219 8.3125 16.953125 8.066406 16.953125 7.765625 C 16.953125 7.464844 17.199219 7.21875 17.5 7.21875 Z M 15.953125 8.3125 C 16.183594 8.96875 16.804688 9.40625 17.5 9.40625 C 18.195312 9.40625 18.816406 8.96875 19.042969 8.3125 L 19.960938 8.3125 C 20.113281 8.316406 20.230469 8.433594 20.234375 8.585938 L 20.234375 10.226562 C 20.230469 10.378906 20.113281 10.496094 19.960938 10.5 L 15.039062 10.5 C 14.886719 10.496094 14.769531 10.378906 14.765625 10.226562 L 14.765625 8.585938 C 14.769531 8.433594 14.886719 8.316406 15.039062 8.3125 Z M 13.671875 24.171875 C 13.371094 24.171875 13.125 23.925781 13.125 23.625 C 13.125 23.324219 13.371094 23.078125 13.671875 23.078125 C 13.972656 23.078125 14.21875 23.324219 14.21875 23.625 C 14.21875 23.925781 13.972656 24.171875 13.671875 24.171875 Z M 13.671875 21.984375 C 13.371094 21.984375 13.125 21.738281 13.125 21.4375 C 13.125 21.136719 13.371094 20.890625 13.671875 20.890625 C 13.972656 20.890625 14.21875 21.136719 14.21875 21.4375 C 14.21875 21.738281 13.972656 21.984375 13.671875 21.984375 Z M 13.671875 19.796875 C 13.371094 19.796875 13.125 19.550781 13.125 19.25 C 13.125 18.949219 13.371094 18.703125 13.671875 18.703125 C 13.972656 18.703125 14.21875 18.949219 14.21875 19.25 C 14.21875 19.550781 13.972656 19.796875 13.671875 19.796875 Z M 13.671875 17.609375 C 13.371094 17.609375 13.125 17.363281 13.125 17.0625 C 13.125 16.761719 13.371094 16.515625 13.671875 16.515625 C 13.972656 16.515625 14.21875 16.761719 14.21875 17.0625 C 14.21875 17.363281 13.972656 17.609375 13.671875 17.609375 Z M 13.671875 15.421875 C 13.371094 15.421875 13.125 15.175781 13.125 14.875 C 13.125 14.574219 13.371094 14.328125 13.671875 14.328125 C 13.972656 14.328125 14.21875 14.574219 14.21875 14.875 C 14.21875 15.175781 13.972656 15.421875 13.671875 15.421875 Z M 21.328125 24.171875 L 15.859375 24.171875 C 15.558594 24.171875 15.3125 23.925781 15.3125 23.625 C 15.3125 23.324219 15.558594 23.078125 15.859375 23.078125 L 21.328125 23.078125 C 21.628906 23.078125 21.875 23.324219 21.875 23.625 C 21.875 23.925781 21.628906 24.171875 21.328125 24.171875 Z M 21.328125 21.984375 L 15.859375 21.984375 C 15.558594 21.984375 15.3125 21.738281 15.3125 21.4375 C 15.3125 21.136719 15.558594 20.890625 15.859375 20.890625 L 21.328125 20.890625 C 21.628906 20.890625 21.875 21.136719 21.875 21.4375 C 21.875 21.738281 21.628906 21.984375 21.328125 21.984375 Z M 21.328125 19.796875 L 15.859375 19.796875 C 15.558594 19.796875 15.3125 19.550781 15.3125 19.25 C 15.3125 18.949219 15.558594 18.703125 15.859375 18.703125 L 21.328125 18.703125 C 21.628906 18.703125 21.875 18.949219 21.875 19.25 C 21.875 19.550781 21.628906 19.796875 21.328125 19.796875 Z M 21.328125 17.609375 L 15.859375 17.609375 C 15.558594 17.609375 15.3125 17.363281 15.3125 17.0625 C 15.3125 16.761719 15.558594 16.515625 15.859375 16.515625 L 21.328125 16.515625 C 21.628906 16.515625 21.875 16.761719 21.875 17.0625 C 21.875 17.363281 21.628906 17.609375 21.328125 17.609375 Z M 21.328125 15.421875 L 15.859375 15.421875 C 15.558594 15.421875 15.3125 15.175781 15.3125 14.875 C 15.3125 14.574219 15.558594 14.328125 15.859375 14.328125 L 21.328125 14.328125 C 21.628906 14.328125 21.875 14.574219 21.875 14.875 C 21.875 15.175781 21.628906 15.421875 21.328125 15.421875 Z M 21.328125 15.421875 "/>
</g>
</svg>
