<?xml version="1.0" encoding="UTF-8" standalone="no"?>
<svg
   id="Capa_1"
   data-name="Capa 1"
   viewBox="0 0 206.38998 206.53998"
   version="1.1"
   sodipodi:docname="Skinsight-logo-s.svg"
   width="206.39"
   height="206.53999"
   inkscape:version="1.2.2 (732a01da63, 2022-12-09)"
   xmlns:inkscape="http://www.inkscape.org/namespaces/inkscape"
   xmlns:sodipodi="http://sodipodi.sourceforge.net/DTD/sodipodi-0.dtd"
   xmlns="http://www.w3.org/2000/svg"
   xmlns:svg="http://www.w3.org/2000/svg">
  <sodipodi:namedview
     id="namedview77"
     pagecolor="#505050"
     bordercolor="#ffffff"
     borderopacity="1"
     inkscape:showpageshadow="0"
     inkscape:pageopacity="0"
     inkscape:pagecheckerboard="1"
     inkscape:deskcolor="#505050"
     showgrid="false"
     inkscape:zoom="1"
     inkscape:cx="140.5"
     inkscape:cy="-28"
     inkscape:window-width="1920"
     inkscape:window-height="1017"
     inkscape:window-x="-8"
     inkscape:window-y="-8"
     inkscape:window-maximized="1"
     inkscape:current-layer="Capa_1" />
  <defs
     id="defs4">
    <style
       id="style2">.cls-1{fill:#e15eb6;}.cls-2{fill:#e4e0ee;}.cls-3{font-size:20px;fill:#8c538c;font-family:MyriadPro-Regular, Myriad Pro;}.cls-4{letter-spacing:-0.01em;}.cls-5{letter-spacing:-0.01em;}.cls-6{letter-spacing:-0.01em;}.cls-7{letter-spacing:-0.05em;}.cls-8{letter-spacing:-0.01em;}.cls-9{letter-spacing:-0.01em;}.cls-10{letter-spacing:0.01em;}.cls-11{letter-spacing:0em;}.cls-12{letter-spacing:-0.01em;}.cls-13{letter-spacing:0em;}.cls-14{letter-spacing:0em;}</style>
  </defs>
  <path
     class="cls-1"
     d="M 0.08399048,86.27 C 0.76399048,73.18 -1.3060095,58.93 3.1339905,44.94 14.893991,7.94 56.803991,-10.72 92.01399,6.43 c 24.94,12.14 37.07,32.66 36.32,60.58 -0.07,2.62 0.31,5.26 0.47,7.89 0.2,3.15 2.69,2.31 4.41,2.31 8.55,0 17.11,0 25.4,2.46 24.57,7.38 40.61,23.33 46.07,48.46 5.57,25.59 -2.69,47.15 -22.42,64 -10.7,9.17 -23.67,13.63 -37.74,13.93 -17.61,0.38 -35.24,0.1 -52.86,0.26 -4,0 -5.61,-1.13 -5.8,-5.44 -0.44,-9.79 0.33,-19.56 0,-29.33 -0.14,-4.24 1.64,-5.62 5.69,-5.58 12.81,0.13 25.62,0.21 38.43,0 13.59,-0.23 22.61,-9.9 22.22,-23.41 -0.34,-11.87 -9.57,-20.78 -22.47,-21.09 -12.46,-0.3 -24.92,-0.27 -37.38,-0.06 -4.59,0.07 -6.35,-1.49 -6.29,-6.14 0.16,-11.91 0,-23.83 0,-35.75 0,-10.82 -5.08,-19 -13.93,-22.57 -9.25,-3.69 -19,-1.79 -25.52,5.33 a 23.58,23.58 0 0 0 -6.47,16.48 c 0,12.1 -0.12,24.2 0.15,36.3 0.11,4.91 -1.68,6.53 -6.52,6.38 -9.25,-0.31 -18.52,-0.26 -27.7699995,0 -4.32,0.1 -6.05000002,-1.35 -5.94000002,-5.81 0.18,-9.43 0.02,-18.86 0.02,-29.36 z"
     id="path6" />
  <path
     class="cls-1"
     d="m 19.88399,206.31 c -5,0 -9.9999995,-0.08 -14.9299995,0 -3.22,0.07 -4.93000002,-0.92 -4.88000002,-4.54 0.15,-10.31 0.1,-20.62 0,-30.93 0,-3.16 1.31000002,-4.55 4.42000002,-4.54 q 15.4700005,0 30.9300005,-0.06 c 3.38,0 4.719999,1.61 4.7,4.91 -0.09,10.13 -0.12,20.27 0,30.4 0,3.43 -1.35,4.79 -4.76,4.69 -5.15,-0.16 -10.31,0 -15.47,0 z"
     id="path8" />
</svg>
