<?xml version="1.0" encoding="UTF-8"?>
<svg xmlns="http://www.w3.org/2000/svg" xmlns:xlink="http://www.w3.org/1999/xlink" width="25px" height="25px" viewBox="0 0 25 25" version="1.1">
<g id="surface1">
<path style=" stroke:none;fill-rule:nonzero;fill:rgb(100%,100%,100%);fill-opacity:1;" d="M 19.375 1.875 L 16.558594 1.875 C 16.265625 1.480469 15.804688 1.25 15.3125 1.25 L 14.269531 1.25 C 14.003906 0.5 13.292969 0 12.5 0 C 11.707031 0 10.996094 0.5 10.734375 1.25 L 9.6875 1.25 C 9.195312 1.25 8.734375 1.480469 8.441406 1.875 L 5.625 1.875 C 3.902344 1.878906 2.503906 3.277344 2.5 5 L 2.5 21.875 C 2.503906 23.597656 3.902344 24.996094 5.625 25 L 19.375 25 C 21.097656 24.996094 22.496094 23.597656 22.5 21.875 L 22.5 5 C 22.496094 3.277344 21.097656 1.878906 19.375 1.875 Z M 12.5 1.25 C 12.84375 1.25 13.125 1.53125 13.125 1.875 C 13.125 2.21875 12.84375 2.5 12.5 2.5 C 12.15625 2.5 11.875 2.21875 11.875 1.875 C 11.875 1.53125 12.15625 1.25 12.5 1.25 Z M 10.730469 2.5 C 10.996094 3.25 11.707031 3.75 12.5 3.75 C 13.292969 3.75 14.003906 3.25 14.265625 2.5 L 15.3125 2.5 C 15.484375 2.503906 15.621094 2.640625 15.625 2.8125 L 15.625 4.6875 C 15.621094 4.859375 15.484375 4.996094 15.3125 5 L 9.6875 5 C 9.515625 4.996094 9.378906 4.859375 9.375 4.6875 L 9.375 2.8125 C 9.378906 2.640625 9.515625 2.503906 9.6875 2.5 Z M 8.125 20.625 C 7.78125 20.625 7.5 20.34375 7.5 20 C 7.5 19.65625 7.78125 19.375 8.125 19.375 C 8.46875 19.375 8.75 19.65625 8.75 20 C 8.75 20.34375 8.46875 20.625 8.125 20.625 Z M 8.125 18.125 C 7.78125 18.125 7.5 17.84375 7.5 17.5 C 7.5 17.15625 7.78125 16.875 8.125 16.875 C 8.46875 16.875 8.75 17.15625 8.75 17.5 C 8.75 17.84375 8.46875 18.125 8.125 18.125 Z M 8.125 15.625 C 7.78125 15.625 7.5 15.34375 7.5 15 C 7.5 14.65625 7.78125 14.375 8.125 14.375 C 8.46875 14.375 8.75 14.65625 8.75 15 C 8.75 15.34375 8.46875 15.625 8.125 15.625 Z M 8.125 13.125 C 7.78125 13.125 7.5 12.84375 7.5 12.5 C 7.5 12.15625 7.78125 11.875 8.125 11.875 C 8.46875 11.875 8.75 12.15625 8.75 12.5 C 8.75 12.84375 8.46875 13.125 8.125 13.125 Z M 8.125 10.625 C 7.78125 10.625 7.5 10.34375 7.5 10 C 7.5 9.65625 7.78125 9.375 8.125 9.375 C 8.46875 9.375 8.75 9.65625 8.75 10 C 8.75 10.34375 8.46875 10.625 8.125 10.625 Z M 16.875 20.625 L 10.625 20.625 C 10.28125 20.625 10 20.34375 10 20 C 10 19.65625 10.28125 19.375 10.625 19.375 L 16.875 19.375 C 17.21875 19.375 17.5 19.65625 17.5 20 C 17.5 20.34375 17.21875 20.625 16.875 20.625 Z M 16.875 18.125 L 10.625 18.125 C 10.28125 18.125 10 17.84375 10 17.5 C 10 17.15625 10.28125 16.875 10.625 16.875 L 16.875 16.875 C 17.21875 16.875 17.5 17.15625 17.5 17.5 C 17.5 17.84375 17.21875 18.125 16.875 18.125 Z M 16.875 15.625 L 10.625 15.625 C 10.28125 15.625 10 15.34375 10 15 C 10 14.65625 10.28125 14.375 10.625 14.375 L 16.875 14.375 C 17.21875 14.375 17.5 14.65625 17.5 15 C 17.5 15.34375 17.21875 15.625 16.875 15.625 Z M 16.875 13.125 L 10.625 13.125 C 10.28125 13.125 10 12.84375 10 12.5 C 10 12.15625 10.28125 11.875 10.625 11.875 L 16.875 11.875 C 17.21875 11.875 17.5 12.15625 17.5 12.5 C 17.5 12.84375 17.21875 13.125 16.875 13.125 Z M 16.875 10.625 L 10.625 10.625 C 10.28125 10.625 10 10.34375 10 10 C 10 9.65625 10.28125 9.375 10.625 9.375 L 16.875 9.375 C 17.21875 9.375 17.5 9.65625 17.5 10 C 17.5 10.34375 17.21875 10.625 16.875 10.625 Z M 16.875 10.625 "/>
</g>
</svg>
