<?xml version="1.0" encoding="UTF-8"?>
<svg xmlns="http://www.w3.org/2000/svg" xmlns:xlink="http://www.w3.org/1999/xlink" width="25px" height="25px" viewBox="0 0 25 25" version="1.1">
<g id="surface1">
<path style=" stroke:none;fill-rule:nonzero;fill:rgb(100%,100%,100%);fill-opacity:1;" d="M 15.625 21.25 C 15.625 18.488281 17.863281 16.25 20.625 16.25 L 20.625 7.5 L 13.132812 0 L 3.75 0 C 2.023438 0 0.625 1.398438 0.625 3.125 L 0.625 21.875 C 0.625 23.601562 2.023438 25 3.75 25 L 17.324219 25 C 16.242188 24.054688 15.625 22.6875 15.625 21.25 Z M 12.5 1.25 L 19.375 8.125 L 15.625 8.125 C 13.898438 8.125 12.5 6.726562 12.5 5 Z M 6.25 11.875 L 11.25 11.875 C 11.59375 11.875 11.875 12.15625 11.875 12.5 C 11.875 12.84375 11.59375 13.125 11.25 13.125 L 6.25 13.125 C 5.90625 13.125 5.625 12.84375 5.625 12.5 C 5.625 12.15625 5.90625 11.875 6.25 11.875 Z M 6.25 14.375 L 15 14.375 C 15.34375 14.375 15.625 14.65625 15.625 15 C 15.625 15.34375 15.34375 15.625 15 15.625 L 6.25 15.625 C 5.90625 15.625 5.625 15.34375 5.625 15 C 5.625 14.65625 5.90625 14.375 6.25 14.375 Z M 14.980469 18.125 L 6.25 18.125 C 5.90625 18.125 5.625 17.84375 5.625 17.5 C 5.625 17.15625 5.90625 16.875 6.25 16.875 L 14.980469 16.875 C 15.328125 16.875 15.605469 17.15625 15.605469 17.5 C 15.605469 17.84375 15.328125 18.125 14.980469 18.125 Z M 20.625 17.5 C 18.554688 17.5 16.875 19.179688 16.875 21.25 C 16.875 23.320312 18.554688 25 20.625 25 C 22.695312 25 24.375 23.320312 24.375 21.25 C 24.371094 19.179688 22.695312 17.503906 20.625 17.5 Z M 21.875 21.875 L 21.25 21.875 L 21.25 22.5 C 21.25 22.84375 20.96875 23.125 20.625 23.125 C 20.28125 23.125 20 22.84375 20 22.5 L 20 21.875 L 19.375 21.875 C 19.03125 21.875 18.75 21.59375 18.75 21.25 C 18.75 20.90625 19.03125 20.625 19.375 20.625 L 20 20.625 L 20 20 C 20 19.65625 20.28125 19.375 20.625 19.375 C 20.96875 19.375 21.25 19.65625 21.25 20 L 21.25 20.625 L 21.875 20.625 C 22.21875 20.625 22.5 20.90625 22.5 21.25 C 22.5 21.59375 22.21875 21.875 21.875 21.875 Z M 21.875 21.875 "/>
</g>
</svg>
