<?xml version="1.0" encoding="UTF-8"?>
<svg xmlns="http://www.w3.org/2000/svg" xmlns:xlink="http://www.w3.org/1999/xlink" width="25px" height="25px" viewBox="0 0 25 25" version="1.1">
<g id="surface1">
<path style=" stroke:none;fill-rule:evenodd;fill:rgb(100%,100%,100%);fill-opacity:1;" d="M 20.703125 22.5 L 4.296875 22.5 C 3.414062 22.5 2.761719 21.628906 3.097656 20.828125 C 4.640625 17.121094 8.269531 15 12.5 15 C 16.730469 15 20.359375 17.121094 21.90625 20.828125 C 22.238281 21.628906 21.585938 22.5 20.703125 22.5 M 7.394531 7.5 C 7.394531 4.742188 9.6875 2.5 12.5 2.5 C 15.316406 2.5 17.605469 4.742188 17.605469 7.5 C 17.605469 10.257812 15.316406 12.5 12.5 12.5 C 9.6875 12.5 7.394531 10.257812 7.394531 7.5 M 24.945312 22.046875 C 24.015625 17.847656 21.117188 14.746094 17.296875 13.339844 C 19.320312 11.746094 20.5 9.164062 20.066406 6.335938 C 19.5625 3.058594 16.78125 0.433594 13.417969 0.0507812 C 8.777344 -0.476562 4.84375 3.0625 4.84375 7.5 C 4.84375 9.863281 5.960938 11.96875 7.703125 13.339844 C 3.882812 14.746094 0.984375 17.847656 0.0546875 22.046875 C -0.28125 23.570312 0.972656 25 2.566406 25 L 22.433594 25 C 24.027344 25 25.28125 23.570312 24.945312 22.046875 "/>
</g>
</svg>
