<svg width="20" height="20" viewBox="0 0 20 20" fill="none" xmlns="http://www.w3.org/2000/svg">
<path d="M19.83 10.121C19.83 9.31203 19.7566 8.71879 19.6099 8.0896H10.1076V11.7748H15.6842C15.5742 12.6917 14.9688 14.0579 13.6113 14.9927L13.593 15.1185L16.6014 17.4016L16.8032 17.4196C18.7293 15.6938 19.83 13.1411 19.83 10.121Z" fill="#4877BB"/>
<path d="M10.1075 19.8285C12.8408 19.8285 15.1338 18.9476 16.8031 17.4196L13.6113 14.9927C12.7491 15.568 11.6117 15.9814 10.1075 15.9814C7.42928 15.9814 5.15461 14.2557 4.34747 11.8647L4.23741 11.8827L1.1189 14.2557L1.08221 14.3635C2.73319 17.5993 6.16354 19.8285 10.1075 19.8285Z" fill="#21A849"/>
<path d="M4.34756 11.8646C4.12743 11.2533 4.01736 10.5882 4.01736 9.90509C4.01736 9.22197 4.14577 8.55682 4.34756 7.94561V7.81977L1.19237 5.41089L1.0823 5.46482C0.40357 6.81308 0 8.32312 0 9.92306C0 11.523 0.385225 13.033 1.0823 14.3813L4.34756 11.8646Z" fill="#FBBA10"/>
<path d="M10.1076 3.82907C12.0153 3.82907 13.2811 4.63801 14.0149 5.30315L16.8765 2.57069C15.1155 0.970756 12.8408 0 10.1076 0C6.14522 0 2.73322 2.22913 1.0639 5.46495L4.32916 7.96373C5.17299 5.55484 7.42931 3.82907 10.1076 3.82907Z" fill="#E73830"/>
</svg>
