<?xml version="1.0" encoding="UTF-8"?>
<svg xmlns="http://www.w3.org/2000/svg" xmlns:xlink="http://www.w3.org/1999/xlink" width="35px" height="35px" viewBox="0 0 35 35" version="1.1">
<g id="surface1">
<path style=" stroke:none;fill-rule:nonzero;fill:rgb(9.803922%,65.490196%,80.784314%);fill-opacity:1;" d="M 35 17.5 C 35 27.164062 27.164062 35 17.5 35 C 7.835938 35 0 27.164062 0 17.5 C 0 7.835938 7.835938 0 17.5 0 C 27.164062 0 35 7.835938 35 17.5 Z M 35 17.5 "/>
<path style=" stroke:none;fill-rule:evenodd;fill:rgb(100%,100%,100%);fill-opacity:1;" d="M 25.117188 25.8125 L 10.761719 25.8125 C 9.984375 25.8125 9.417969 25.050781 9.710938 24.351562 C 11.0625 21.109375 14.234375 19.25 17.9375 19.25 C 21.640625 19.25 24.816406 21.109375 26.167969 24.351562 C 26.457031 25.050781 25.890625 25.8125 25.117188 25.8125 Z M 13.46875 12.6875 C 13.46875 10.277344 15.476562 8.3125 17.9375 8.3125 C 20.402344 8.3125 22.40625 10.277344 22.40625 12.6875 C 22.40625 15.097656 20.402344 17.0625 17.9375 17.0625 C 15.476562 17.0625 13.46875 15.097656 13.46875 12.6875 Z M 28.824219 25.417969 C 28.015625 21.742188 25.480469 19.03125 22.136719 17.800781 C 23.902344 16.40625 24.9375 14.140625 24.558594 11.671875 C 24.117188 8.804688 21.683594 6.507812 18.742188 6.167969 C 14.679688 5.710938 11.238281 8.804688 11.238281 12.6875 C 11.238281 14.753906 12.21875 16.597656 13.742188 17.800781 C 10.394531 19.03125 7.863281 21.742188 7.050781 25.417969 C 6.753906 26.746094 7.851562 28 9.246094 28 L 26.628906 28 C 28.023438 28 29.121094 26.746094 28.824219 25.417969 Z M 28.824219 25.417969 "/>
</g>
</svg>
