<?xml version="1.0" encoding="UTF-8"?>
<svg xmlns="http://www.w3.org/2000/svg" xmlns:xlink="http://www.w3.org/1999/xlink" width="35px" height="35px" viewBox="0 0 35 35" version="1.1">
<g id="surface1">
<path style=" stroke:none;fill-rule:nonzero;fill:rgb(9.803922%,65.490196%,80.784314%);fill-opacity:1;" d="M 35 17.5 C 35 27.164062 27.164062 35 17.5 35 C 7.835938 35 0 27.164062 0 17.5 C 0 7.835938 7.835938 0 17.5 0 C 27.164062 0 35 7.835938 35 17.5 Z M 35 17.5 "/>
<path style=" stroke:none;fill-rule:nonzero;fill:rgb(100%,100%,100%);fill-opacity:1;" d="M 21 24.71875 C 21 22.300781 22.957031 20.34375 25.375 20.34375 L 25.375 12.6875 L 18.816406 6.125 L 10.609375 6.125 C 9.101562 6.125 7.875 7.351562 7.875 8.859375 L 7.875 25.265625 C 7.875 26.773438 9.101562 28 10.609375 28 L 22.488281 28 C 21.542969 27.175781 21 25.976562 21 24.71875 Z M 18.265625 7.21875 L 24.28125 13.234375 L 21 13.234375 C 19.492188 13.234375 18.265625 12.007812 18.265625 10.5 Z M 12.796875 16.515625 L 17.171875 16.515625 C 17.472656 16.515625 17.71875 16.761719 17.71875 17.0625 C 17.71875 17.363281 17.472656 17.609375 17.171875 17.609375 L 12.796875 17.609375 C 12.496094 17.609375 12.25 17.363281 12.25 17.0625 C 12.25 16.761719 12.496094 16.515625 12.796875 16.515625 Z M 12.796875 18.703125 L 20.453125 18.703125 C 20.753906 18.703125 21 18.949219 21 19.25 C 21 19.550781 20.753906 19.796875 20.453125 19.796875 L 12.796875 19.796875 C 12.496094 19.796875 12.25 19.550781 12.25 19.25 C 12.25 18.949219 12.496094 18.703125 12.796875 18.703125 Z M 20.4375 21.984375 L 12.796875 21.984375 C 12.496094 21.984375 12.25 21.738281 12.25 21.4375 C 12.25 21.136719 12.496094 20.890625 12.796875 20.890625 L 20.4375 20.890625 C 20.738281 20.890625 20.984375 21.136719 20.984375 21.4375 C 20.984375 21.738281 20.738281 21.984375 20.4375 21.984375 Z M 25.375 21.4375 C 23.566406 21.4375 22.09375 22.910156 22.09375 24.71875 C 22.09375 26.527344 23.566406 28 25.375 28 C 27.183594 28 28.65625 26.527344 28.65625 24.71875 C 28.652344 22.910156 27.183594 21.441406 25.375 21.4375 Z M 26.46875 25.265625 L 25.921875 25.265625 L 25.921875 25.8125 C 25.921875 26.113281 25.675781 26.359375 25.375 26.359375 C 25.074219 26.359375 24.828125 26.113281 24.828125 25.8125 L 24.828125 25.265625 L 24.28125 25.265625 C 23.980469 25.265625 23.734375 25.019531 23.734375 24.71875 C 23.734375 24.417969 23.980469 24.171875 24.28125 24.171875 L 24.828125 24.171875 L 24.828125 23.625 C 24.828125 23.324219 25.074219 23.078125 25.375 23.078125 C 25.675781 23.078125 25.921875 23.324219 25.921875 23.625 L 25.921875 24.171875 L 26.46875 24.171875 C 26.769531 24.171875 27.015625 24.417969 27.015625 24.71875 C 27.015625 25.019531 26.769531 25.265625 26.46875 25.265625 Z M 26.46875 25.265625 "/>
</g>
</svg>
